<?xml version="1.0" standalone="no"?>
<!DOCTYPE svg PUBLIC "-//W3C//DTD SVG 20010904//EN"
 "http://www.w3.org/TR/2001/REC-SVG-20010904/DTD/svg10.dtd">
<svg version="1.0" xmlns="http://www.w3.org/2000/svg"
 width="667.000000pt" height="500.000000pt" viewBox="0 0 667.000000 500.000000"
 preserveAspectRatio="xMidYMid meet">

<g transform="translate(0.000000,500.000000) scale(0.100000,-0.100000)"
fill="#000000" stroke="none">
<path d="M305 3208 c-3 -7 -4 -296 -3 -643 l3 -630 248 -3 247 -2 0 85 0 85
215 0 c230 0 279 6 385 50 160 66 310 195 376 323 17 32 31 47 44 47 19 0 20
-8 20 -295 l0 -295 225 0 225 0 0 270 0 270 28 0 c24 0 48 -30 218 -268 l190
-267 237 -3 c154 -1 237 1 237 8 0 5 -19 36 -43 67 -24 32 -115 157 -202 278
-87 121 -167 230 -178 242 -10 11 -17 27 -15 35 1 7 104 149 228 315 170 229
230 302 244 300 13 -1 92 -101 227 -287 198 -272 208 -287 209 -331 0 -44 -10
-60 -195 -328 -107 -155 -195 -286 -195 -291 0 -6 76 -10 200 -10 l200 0 0 80
0 80 223 0 c260 0 322 10 447 71 114 56 228 169 283 281 35 70 40 76 63 69
l24 -6 3 -285 2 -285 230 0 230 0 5 240 c3 150 9 240 15 240 6 0 78 -103 162
-228 l151 -227 35 47 c18 27 87 126 151 220 109 161 144 202 160 186 3 -3 6
-112 6 -242 l0 -236 240 3 240 3 0 629 c0 347 0 633 0 638 0 4 -109 7 -242 7
l-242 0 -166 -257 c-91 -141 -169 -256 -174 -254 -5 1 -34 41 -65 89 -31 47
-105 163 -166 257 l-110 170 -228 -2 -228 -3 -2 -190 -2 -190 -30 -3 c-26 -2
-34 3 -60 45 -48 76 -162 190 -239 238 -39 24 -107 56 -151 72 l-80 28 -697 3
-696 3 -217 -316 c-184 -267 -220 -315 -241 -315 l-24 0 0 315 0 315 -225 0
-225 0 0 -195 0 -195 -23 0 c-17 0 -34 15 -60 53 -113 163 -276 286 -429 322
-86 20 -1016 22 -1023 3z m933 -303 c71 -36 138 -98 169 -158 24 -47 26 -145
3 -182 -28 -46 -119 -129 -171 -156 -40 -21 -59 -24 -214 -27 -105 -2 -181 0
-197 7 l-28 11 0 258 c0 187 3 261 12 270 8 8 63 12 184 12 l171 0 71 -35z
m2868 6 c124 -59 204 -161 204 -261 0 -35 -6 -65 -16 -80 -35 -52 -121 -133
-169 -158 -48 -25 -59 -27 -226 -30 -119 -3 -184 0 -198 7 -21 11 -21 18 -21
262 0 153 4 258 10 270 10 18 23 19 183 19 169 0 173 0 233 -29z"/>
<path d="M3142 2664 l-93 -115 97 -121 c78 -98 98 -118 108 -107 59 66 166
221 160 232 -22 36 -167 227 -173 227 -3 -1 -48 -53 -99 -116z"/>
</g>
</svg>
