<?xml version="1.0" standalone="no"?>
<!DOCTYPE svg PUBLIC "-//W3C//DTD SVG 20010904//EN"
 "http://www.w3.org/TR/2001/REC-SVG-20010904/DTD/svg10.dtd">
<svg version="1.0" xmlns="http://www.w3.org/2000/svg"
 width="384.000000pt" height="384.000000pt" viewBox="0 0 384.000000 384.000000"
 preserveAspectRatio="xMidYMid meet">

<g transform="translate(0.000000,384.000000) scale(0.100000,-0.100000)"
fill="#000000" stroke="none">
<path d="M710 3204 c-61 -13 -201 -75 -245 -109 -19 -15 -19 -16 8 -42 25 -25
27 -26 45 -10 28 26 161 83 220 96 133 28 275 6 406 -62 70 -36 107 -67 269
-226 l188 -185 25 25 25 25 -194 191 c-182 179 -198 193 -287 237 -52 25 -126
53 -165 61 -87 18 -209 18 -295 -1z"/>
<path d="M2950 3204 c-36 -7 -108 -34 -160 -60 -89 -44 -105 -58 -287 -237
l-194 -191 25 -25 25 -25 188 185 c162 159 199 190 269 226 136 71 282 91 422
58 63 -15 173 -65 205 -93 16 -15 20 -14 44 11 27 26 27 27 8 42 -46 35 -185
96 -250 110 -87 18 -209 18 -295 -1z"/>
<path d="M117 3132 c-25 -32 -62 -88 -81 -124 l-36 -65 0 -398 0 -398 31 -56
c131 -232 345 -395 604 -462 125 -33 321 -33 449 -1 103 26 226 81 317 142 35
24 180 158 322 299 l257 255 258 -255 c141 -141 286 -275 321 -299 89 -60 210
-114 316 -141 128 -33 322 -33 450 0 176 45 373 162 473 279 l42 51 0 590 0
590 -22 25 -23 26 -138 -135 c-76 -74 -136 -139 -133 -143 3 -5 21 -32 40 -60
138 -206 116 -491 -52 -674 -69 -75 -151 -129 -240 -160 -55 -18 -87 -22 -177
-22 -118 1 -182 18 -274 70 -27 16 -210 190 -444 423 l-397 396 -403 -402
c-419 -418 -427 -425 -557 -469 -80 -27 -253 -25 -334 5 -84 30 -142 66 -209
130 -197 187 -228 483 -75 711 l40 61 -23 26 c-13 14 -76 74 -141 134 l-116
110 -45 -59z"/>
<path d="M370 1144 c0 -4 19 -67 42 -140 25 -80 47 -134 55 -134 7 0 26 43 44
105 18 58 35 105 39 105 3 0 21 -47 40 -105 19 -60 39 -105 47 -105 7 0 17 17
22 38 6 20 26 83 45 140 30 88 33 103 18 100 -12 -2 -26 -32 -47 -95 -16 -51
-33 -95 -37 -98 -3 -4 -21 39 -39 95 -24 73 -38 100 -48 98 -10 -2 -27 -40
-46 -100 -16 -54 -33 -98 -37 -98 -4 0 -21 45 -39 100 -19 58 -39 100 -46 100
-7 0 -13 -3 -13 -6z"/>
<path d="M770 1035 c0 -110 1 -117 25 -140 21 -22 33 -25 90 -25 99 0 105 10
105 160 0 100 -2 120 -15 120 -12 0 -15 -19 -15 -113 0 -75 -4 -117 -12 -125
-7 -7 -36 -12 -64 -12 -75 0 -84 16 -84 147 0 85 -3 103 -15 103 -12 0 -15
-19 -15 -115z"/>
<path d="M1070 1010 c0 -133 1 -140 20 -140 18 0 20 7 20 70 l0 70 80 0 80 0
0 -70 c0 -56 3 -70 15 -70 13 0 15 22 15 140 0 118 -2 140 -15 140 -12 0 -15
-13 -15 -55 l0 -55 -80 0 -80 0 0 55 c0 48 -2 55 -20 55 -19 0 -20 -7 -20
-140z"/>
<path d="M1416 1014 c-36 -75 -66 -138 -66 -140 0 -2 7 -4 15 -4 8 0 24 18 35
40 l20 40 75 0 75 0 20 -40 c11 -22 27 -40 35 -40 8 0 15 2 15 5 0 17 -137
275 -146 275 -6 0 -41 -61 -78 -136z m109 26 c14 -27 25 -52 25 -55 0 -3 -25
-5 -56 -5 -31 0 -54 4 -52 8 2 4 12 29 23 55 11 26 23 47 27 47 4 0 19 -22 33
-50z"/>
<path d="M1690 1013 c0 -119 2 -143 15 -143 11 0 15 20 17 102 l3 101 88 -101
c48 -56 92 -102 98 -102 6 0 8 53 7 137 -3 122 -5 138 -20 141 -16 3 -18 -7
-18 -100 l-1 -103 -52 60 c-29 33 -71 80 -94 105 l-43 45 0 -142z"/>
<path d="M2110 1011 l0 -141 72 0 c128 0 198 57 185 152 -12 87 -57 120 -173
126 l-84 5 0 -142z m152 99 c21 -6 44 -21 53 -33 17 -25 20 -99 4 -129 -15
-28 -69 -48 -129 -48 l-50 0 0 103 c0 57 3 107 7 110 10 10 73 8 115 -3z"/>
<path d="M2430 1010 l0 -140 115 0 c94 0 115 3 115 15 0 11 -20 15 -97 17
l-98 3 -3 48 -3 47 55 0 c42 0 56 4 56 14 0 11 -15 16 -52 18 l-53 3 0 40 0
40 93 3 c68 2 92 6 89 15 -2 8 -38 13 -110 15 l-107 3 0 -141z"/>
<path d="M2726 1128 c-24 -23 -30 -36 -27 -70 1 -24 45 -44 116 -53 75 -9 95
-19 95 -50 0 -53 -100 -74 -172 -35 -31 17 -38 17 -48 5 -10 -13 -5 -19 35
-36 37 -16 62 -20 112 -17 75 5 104 26 105 78 2 48 -36 77 -109 85 -76 8 -103
20 -103 44 0 43 84 55 149 21 34 -17 40 -17 45 -4 8 21 -67 54 -126 54 -35 0
-53 -6 -72 -22z"/>
<path d="M3010 1010 c0 -133 1 -140 20 -140 19 0 20 7 20 140 0 133 -1 140
-20 140 -19 0 -20 -7 -20 -140z"/>
<path d="M3174 1131 c-60 -37 -83 -136 -44 -198 28 -47 72 -66 137 -61 74 6
103 34 103 100 l0 48 -50 0 c-38 0 -50 -4 -50 -15 0 -10 11 -15 35 -15 30 0
35 -3 35 -23 0 -37 -40 -67 -87 -67 -76 0 -126 67 -104 140 23 77 109 106 168
56 19 -16 34 -22 43 -16 12 7 12 11 0 25 -38 46 -131 59 -186 26z"/>
<path d="M3450 1013 c0 -119 2 -143 15 -143 11 0 15 20 17 102 l3 101 89 -101
c48 -56 92 -102 97 -102 6 0 8 58 7 137 -3 122 -5 138 -20 141 -16 3 -18 -7
-18 -100 l0 -103 -53 60 c-28 33 -71 80 -94 105 l-43 45 0 -142z"/>
<path d="M1390 635 l0 -45 -95 0 c-88 0 -95 -1 -95 -20 0 -19 7 -20 99 -20
l98 0 6 -65 c9 -99 43 -147 90 -129 18 6 33 66 22 83 -10 18 -25 13 -25 -8 0
-11 -4 -22 -9 -26 -15 -9 -30 27 -37 89 l-7 56 42 0 c34 0 41 3 41 20 0 17 -7
20 -39 20 -41 0 -51 13 -51 68 0 15 -6 22 -20 22 -17 0 -20 -7 -20 -45z"/>
<path d="M2557 668 c-17 -9 -16 -16 11 -56 9 -14 42 -6 42 10 0 5 -8 20 -18
33 -14 17 -22 21 -35 13z"/>
<path d="M2717 673 c-4 -3 -7 -26 -7 -50 l0 -43 -40 0 c-36 0 -40 -2 -40 -25
0 -22 4 -25 40 -25 l39 0 3 -87 c3 -83 4 -88 26 -91 21 -3 22 -1 22 87 l0 91
40 0 c36 0 40 3 40 25 0 23 -4 25 -40 25 l-40 0 0 50 c0 42 -3 50 -18 50 -10
0 -22 -3 -25 -7z"/>
<path d="M1454 655 c-4 -9 2 -25 12 -36 15 -17 20 -18 32 -5 16 16 10 31 -19
46 -15 9 -21 7 -25 -5z"/>
<path d="M1660 655 c-10 -12 -8 -19 11 -35 29 -23 33 -24 48 -7 8 10 4 19 -18
35 -25 18 -31 19 -41 7z"/>
<path d="M2105 660 c-6 -10 22 -60 34 -60 3 0 12 4 20 9 11 7 10 13 -4 35 -18
27 -39 34 -50 16z"/>
<path d="M2217 664 c-4 -4 -7 -17 -7 -29 0 -12 -6 -30 -14 -41 -13 -17 -12
-21 1 -36 10 -11 12 -18 5 -18 -7 0 -12 -9 -12 -20 0 -12 7 -20 18 -20 14 0
15 -2 2 -10 -12 -8 -11 -14 8 -40 l23 -31 -35 -14 c-38 -16 -44 -26 -23 -43 9
-8 25 -5 57 9 42 19 47 19 78 5 42 -20 68 -20 76 0 3 9 6 17 6 18 0 2 -18 8
-41 15 l-41 12 20 22 c25 28 42 61 42 81 0 13 -14 16 -81 16 -44 0 -79 3 -77
8 2 4 12 24 21 45 15 32 22 38 45 35 21 -2 28 -9 32 -33 4 -26 10 -30 43 -33
32 -3 37 0 37 17 0 14 -6 21 -19 21 -15 0 -21 8 -23 33 l-3 32 -65 3 c-36 2
-69 0 -73 -4z m96 -189 c-23 -31 -34 -31 -63 0 l-23 25 52 0 52 0 -18 -25z"/>
<path d="M1740 640 c0 -18 7 -20 80 -20 l79 0 -13 -44 c-7 -24 -20 -54 -29
-66 l-16 -23 -20 34 c-11 18 -23 46 -26 61 -7 30 -12 33 -33 19 -17 -10 -3
-69 28 -119 l20 -32 -45 -28 c-50 -30 -50 -31 -32 -55 11 -16 16 -15 57 13 25
16 48 30 52 30 4 0 24 -11 44 -25 44 -30 46 -30 62 -5 10 17 9 21 -16 34 -58
32 -57 29 -27 91 16 31 30 79 33 106 l5 49 -102 0 c-94 0 -101 -1 -101 -20z"/>
<path d="M1220 635 c0 -12 15 -15 75 -15 60 0 75 3 75 15 0 12 -15 15 -75 15
-60 0 -75 -3 -75 -15z"/>
<path d="M1644 569 c-3 -6 5 -23 19 -37 22 -22 28 -23 42 -12 14 12 14 15 -6
37 -24 25 -44 29 -55 12z"/>
<path d="M2080 545 c0 -16 6 -25 16 -25 13 0 15 -12 13 -65 -3 -86 10 -100 52
-58 24 23 29 36 24 52 -5 18 -9 20 -21 10 -12 -10 -14 -2 -14 50 l0 61 -35 0
c-31 0 -35 -3 -35 -25z"/>
<path d="M2520 551 c0 -12 7 -21 15 -21 12 0 15 -15 15 -72 0 -100 8 -109 59
-68 43 35 45 38 33 57 -5 8 -13 9 -22 3 -27 -18 -31 -10 -29 53 l3 62 -37 3
c-32 3 -37 0 -37 -17z"/>
<path d="M1288 478 c-4 -76 -22 -83 -26 -10 -3 44 -6 52 -23 52 -16 0 -19 -7
-19 -55 0 -30 -4 -55 -10 -55 -5 0 -10 -9 -10 -20 0 -23 21 -25 129 -14 50 6
61 10 61 25 0 14 -7 19 -30 19 -25 0 -30 4 -30 25 0 21 5 25 30 25 20 0 30 5
30 15 0 9 -10 15 -26 15 -17 0 -28 6 -31 20 -3 11 -14 20 -24 20 -15 0 -19
-10 -21 -62z"/>
<path d="M1662 433 c-21 -57 -18 -81 10 -71 21 8 51 110 35 120 -20 13 -24 10
-45 -49z"/>
</g>
</svg>
